,
.   http://www.scenetime.com/signup.php  ---&gt;  Hottest scene tracker on the net !!!  

    Join Now   http://www.scenetime.com/signup.php

    seed back for speed


 



...................................NFO:.................................................[img]http://img717.imageshack.us/img717/4075/thirtyminutesorlessver3.jpg[/img]

30.Minutes.Or.Less.2011.R5.CAM.XviD-EMBER
 
http://www.imdb.com/title/tt1622547 

Plot:
Two fledgling criminals kidnap a pizza delivery guy, strap a bomb to his chest, and inform him that he has mere 
hours to rob a bank or else

Video Source                     : Uspet.za.30.minut.2011.D.DVD5 Thanks
Audio Source                     : ILLUMINATI  Thanks m8, and thanks for sync work, much appreciated ;)

General
Format                           : AVI
Format/Info                      : Audio Video Interleave
File size                        : 1 016 MiB
Duration                         : 1h 19mn
Overall bit rate                 : 1 783 Kbps
Writing application              : VirtualDubMod 1.5.10.2 (build 2540/release)
Writing library                  : VirtualDubMod build 2540/release

Video
ID                               : 0
Format                           : MPEG-4 Visual
Format profile                   : Advanced Simple@L5
Format settings, BVOP            : 2
Format settings, QPel            : No
Format settings, GMC             : No warppoints
Format settings, Matrix          : Default (H.263)
Muxing mode                      : Packed bitstream
Codec ID                         : XVID
Codec ID/Hint                    : XviD
Duration                         : 1h 19mn
Bit rate                         : 1 645 Kbps
Width                            : 720 pixels
Height                           : 304 pixels
Display aspect ratio             : 2.35:1
Frame rate                       : 25.000 fps
Color space                      : YUV
Chroma subsampling               : 4:2:0
Bit depth                        : 8 bits
Scan type                        : Progressive
Compression mode                 : Lossy
Bits/(Pixel*Frame)               : 0.301
Stream size                      : 938 MiB (92%)
Writing library                  : XviD 64

Audio
ID                               : 1
Format                           : MPEG Audio
Format version                   : Version 1
Format profile                   : Layer 3
Mode                             : Joint stereo
Mode extension                   : MS Stereo
Codec ID                         : 55
Codec ID/Hint                    : MP3
Duration                         : 1h 19mn
Bit rate mode                    : Constant
Bit rate                         : 128 Kbps
Channel(s)                       : 2 channels
Sampling rate                    : 44.1 KHz
Compression mode                 : Lossy
Stream size                      : 73.0 MiB (7%)
Alignment                        : Split accross interleaves
Interleave, duration             : 40 ms (1.00 video frame)
Interleave, preload duration     : 500 ms
Writing library                  : LAME3.98r
Encoding settings                : -m j -V 4 -q 2 -lowpass 17 -b 128

Notes
Full video and audio thanks to the guys at ILLUMINATI without whom many of these R5's wouldnt be possible 
as there be no audio ;)  only cam audio but still better than nothing :P you dont liek then wait some months 
for retail dvd

Work Done
Cropped, Resized, Added slight denoiser, increased satuartion, changed RGB levels slightly and Sharpened

Screens
[img]http://img43.imageshack.us/img43/5158/99563163.png[/img]
[img]http://img833.imageshack.us/img833/3449/47940713.png[/img]
[img]http://img202.imageshack.us/img202/682/88818608.png[img]
[img]http://img685.imageshack.us/img685/6964/35169973.png[/img]
[img]http://img3.imageshack.us/img3/6632/84750610.png[/img]


Greetz to

SHiRK, SHK, LKRG, UnKnOwN, IMAGiNE, SiC, BHRG, TaRiQ786, FLAWL3SS, Rx

SAMURAi, ViSUALiSE, RemixHD, iNSANE, DTRG. Hive, ILLUMINATI

And to all other groups past and present

Got something to offer?

then you should know where to find us